<svg xmlns="http://www.w3.org/2000/svg" xmlns:xlink="http://www.w3.org/1999/xlink" width="128" zoomAndPan="magnify" viewBox="0 0 96 95.999999" height="128" preserveAspectRatio="xMidYMid meet" version="1.0"><defs><g/></defs><rect x="-9.6" width="115.2" fill="#ffffff" y="-9.6" height="115.199999" fill-opacity="1"/><rect x="-9.6" width="115.2" fill="#3098f3" y="-9.6" height="115.199999" fill-opacity="1"/><path stroke-linecap="butt" transform="matrix(0.75, 0, 0, 0.75, 23.098609, 79.327323)" fill="none" stroke-linejoin="miter" d="M -0.00127094 2.00107 L 97.201859 2.00107 " stroke="#ffcc00" stroke-width="4" stroke-opacity="1" stroke-miterlimit="4"/><g fill="#ffffff" fill-opacity="1"><g transform="translate(20.427117, 64.972986)"><g><path d="M 22.140625 -28.203125 C 25.335938 -28.203125 27.738281 -27.3125 29.34375 -25.53125 C 30.945312 -23.757812 31.75 -21.203125 31.75 -17.859375 L 31.75 0 L 21.359375 0 L 21.359375 -16.609375 C 21.359375 -17.785156 21.050781 -18.726562 20.4375 -19.4375 C 19.832031 -20.15625 18.972656 -20.515625 17.859375 -20.515625 C 16.566406 -20.515625 15.519531 -20.097656 14.71875 -19.265625 C 13.925781 -18.429688 13.53125 -17.40625 13.53125 -16.1875 L 13.53125 0 L 3.140625 0 L 3.140625 -27.578125 L 11.640625 -27.578125 L 12.328125 -23.390625 C 13.398438 -24.859375 14.816406 -26.023438 16.578125 -26.890625 C 18.335938 -27.765625 20.191406 -28.203125 22.140625 -28.203125 Z M 22.140625 -28.203125 "/></g></g></g><g fill="#ffffff" fill-opacity="1"><g transform="translate(55.255646, 64.972986)"><g><path d="M 14.359375 -38.484375 C 15.128906 -38.484375 16.085938 -38.382812 17.234375 -38.1875 C 18.378906 -38 19.300781 -37.785156 20 -37.546875 L 20 -31.4375 L 17.59375 -31.4375 C 16.476562 -31.4375 15.710938 -31.226562 15.296875 -30.8125 C 14.878906 -30.394531 14.671875 -29.679688 14.671875 -28.671875 L 14.671875 -27.578125 L 20 -27.578125 L 20 -20.515625 L 14.671875 -20.515625 L 14.671875 0 L 4.28125 0 L 4.28125 -20.515625 L 0.421875 -20.515625 L 0.421875 -27.578125 L 4.28125 -27.578125 L 4.28125 -28.71875 C 4.28125 -32.269531 5.148438 -34.785156 6.890625 -36.265625 C 8.628906 -37.742188 11.117188 -38.484375 14.359375 -38.484375 Z M 14.359375 -38.484375 "/></g></g></g></svg>